<?xml version="1.0" encoding="UTF-8"?>
<svg xmlns="http://www.w3.org/2000/svg" width="1200" height="800" viewBox="0 0 1200 800">
  <title>Yucatan Peninsula - Mexico, Guatemala, Belize</title>
  <desc>Interactive map of tourist destinations</desc>

  <!-- Background -->
  <rect width="100%" height="100%" fill="#e6f3ff"/>

  <!-- Countries -->
  <path id="mexico" class="country" d="M 0.00,325.63 L 19.75,323.34 39.58,317.43 46.46,312.05 49.70,308.09 88.23,302.42 95.83,301.30 134.88,300.28 153.73,298.20 175.92,296.97 191.94,305.30 191.92,309.37 181.26,313.23 186.24,316.96 205.20,323.14 240.05,325.64 251.32,324.64 267.35,315.54 295.67,306.72 295.07,296.46 290.01,290.85 281.78,290.50 279.81,287.35 285.56,279.81 284.05,277.27 266.48,284.50 262.42,284.48 264.37,281.10 268.00,278.42 319.55,262.67 332.75,256.19 350.57,250.49 387.56,229.09 395.46,188.81 402.84,181.77 427.36,169.40 429.99,165.68 431.58,157.26 430.91,136.10 432.29,119.47 431.29,100.66 435.69,83.87 439.69,79.20 453.75,52.33 482.93,40.44 533.55,26.39 545.18,24.04 706.51,9.16 729.14,5.53 745.03,0.00 930.69,0.00 946.21,2.94 985.56,5.66 991.21,4.48 996.41,2.42 998.87,0.00 1037.65,0.00 1043.71,3.96 1058.73,8.35 1059.93,28.35 1062.20,31.99 1067.70,37.28 1060.20,52.78 1051.77,65.59 1041.22,76.11 1018.36,92.67 990.64,105.89 956.33,135.32 948.48,149.10 948.72,160.16 954.53,170.83 952.84,174.77 948.65,178.76 941.68,178.40 928.15,183.52 910.68,198.71 910.27,203.34 917.95,207.58 927.89,205.55 940.86,205.36 948.11,204.11 955.76,204.44 954.05,213.15 945.83,219.33 940.65,221.27 931.37,222.32 920.99,225.84 915.65,229.08 916.16,239.16 921.93,239.95 934.15,232.43 941.23,232.80 942.67,235.97 926.82,261.72 916.62,288.16 902.82,303.46 897.97,325.74 890.73,335.24 882.30,344.64 877.37,344.12 864.06,326.31 850.45,321.72 847.47,317.39 855.23,295.80 851.70,283.85 844.49,284.32 835.41,290.88 823.41,296.57 823.66,304.79 809.87,318.45 806.46,322.94 793.30,321.89 778.07,322.48 767.49,325.77 756.65,342.34 729.67,365.69 718.91,377.01 710.16,380.93 703.23,382.45 695.55,379.77 677.07,373.36 662.82,376.45 657.88,383.79 658.03,393.08 622.02,393.07 560.78,393.03 482.81,392.99 407.65,392.95 344.72,392.92 344.50,413.79 344.30,432.27 344.06,453.07 309.34,452.90 272.64,452.71 275.60,454.78 288.14,458.69 304.43,468.03 323.68,482.54 347.00,494.10 374.40,502.71 392.45,511.14 401.15,519.37 405.54,526.39 405.59,532.19 415.58,536.77 433.53,539.78 442.80,544.96 442.80,549.19 437.12,558.79 435.45,569.35 437.63,578.91 424.80,579.07 393.73,579.09 346.36,579.11 302.78,579.13 268.46,579.15 216.59,579.18 202.38,593.88 178.76,618.32 157.35,640.47 139.34,659.10 136.41,664.00 136.40,667.98 158.60,685.42 154.50,690.48 146.70,693.12 144.25,697.22 144.74,703.86 139.48,712.71 141.18,718.79 144.02,726.29 139.36,732.79 135.59,739.09 131.12,741.82 126.08,739.44 80.41,710.44 32.75,678.55 13.99,668.15 0.00,662.06 0.00,325.63 Z M 1030.04,130.97 L 1025.24,119.22 1032.35,107.76 1040.94,101.17 1057.96,100.40 1069.15,98.23 1070.57,101.15 1061.35,110.03 1038.92,127.65 1030.04,130.97 Z M 1080.64,32.96 L 1077.66,32.34 1073.76,28.45 1070.93,23.59 1073.30,23.47 1075.39,25.14 1077.60,27.81 1080.64,32.96 Z M 206.38,303.55 L 202.95,301.24 241.87,290.34 248.52,290.81 250.85,292.27 230.70,297.44 225.65,301.08 206.38,303.55 Z" 
        fill="#90EE90" stroke="#333" stroke-width="1.5" opacity="0.8"/>
  <path id="guatemala" class="country" d="M 274.62,800.00 L 232.99,787.74 202.44,775.66 131.12,741.82 135.59,739.09 139.36,732.79 144.02,726.29 141.18,718.79 139.48,712.71 144.74,703.86 144.25,697.22 146.70,693.12 154.50,690.48 158.60,685.42 136.40,667.98 136.41,664.00 139.34,659.10 157.35,640.47 178.76,618.32 202.38,593.88 216.59,579.18 268.46,579.15 302.78,579.13 346.36,579.11 393.73,579.09 424.80,579.07 437.63,578.91 435.45,569.35 437.12,558.79 442.80,549.19 442.80,544.96 433.53,539.78 415.58,536.77 405.59,532.19 405.54,526.39 401.15,519.37 392.45,511.14 374.40,502.71 347.00,494.10 323.68,482.54 304.43,468.03 288.14,458.69 275.60,454.78 272.64,452.71 309.34,452.90 344.06,453.07 344.30,432.27 344.50,413.79 344.72,392.92 407.65,392.95 482.81,392.99 560.78,393.03 622.02,393.07 658.03,393.08 656.38,418.96 654.48,448.94 653.08,470.97 651.21,500.37 649.29,530.44 646.69,571.43 645.00,597.93 645.80,598.54 666.24,597.26 696.49,598.42 703.88,598.33 713.14,600.64 720.28,601.33 735.66,607.30 753.71,611.82 765.22,602.71 759.16,597.22 754.63,594.42 755.32,591.97 818.00,615.57 810.61,619.21 794.65,627.63 765.72,642.01 739.80,654.88 714.87,666.56 692.40,677.07 689.76,678.11 661.27,685.62 656.52,689.08 650.38,703.94 647.59,707.62 652.76,715.87 657.91,728.61 656.27,735.27 636.56,743.47 627.53,750.85 623.55,755.62 620.01,754.39 613.91,754.02 599.85,755.86 593.05,756.28 587.38,758.39 586.81,762.98 590.57,770.43 591.91,774.27 587.95,776.04 570.64,780.51 563.81,784.93 557.25,791.79 549.65,794.66 541.72,794.12 536.11,795.14 524.77,800.00 274.62,800.00 Z" 
        fill="#FFB6C1" stroke="#333" stroke-width="1.5" opacity="0.8"/>
  <path id="belize" class="country" d="M 657.88,383.79 L 662.82,376.45 677.07,373.36 695.55,379.77 703.23,382.45 710.16,380.93 718.91,377.01 729.67,365.69 756.65,342.34 767.49,325.77 778.07,322.48 793.30,321.89 806.46,322.94 797.27,335.06 806.46,336.63 814.75,335.50 834.81,335.92 842.53,349.21 840.48,360.36 821.58,389.75 819.18,399.85 810.56,414.95 822.26,424.90 811.34,438.12 807.63,446.65 806.74,459.51 812.26,483.94 803.41,519.17 787.79,534.55 778.09,540.40 760.75,555.69 737.97,560.25 706.44,584.89 700.85,591.36 703.88,598.33 696.49,598.42 666.24,597.26 645.80,598.54 645.00,597.93 646.69,571.43 649.29,530.44 651.21,500.37 653.08,470.97 654.48,448.94 656.38,418.96 658.03,393.08 657.88,383.79 Z M 857.47,383.32 L 864.17,377.17 865.15,373.22 874.57,356.81 881.33,356.90 883.11,358.36 865.61,381.34 857.47,383.32 Z M 869.15,449.81 L 868.31,445.55 873.80,434.51 881.24,430.64 885.85,426.55 886.90,421.73 893.38,424.08 891.75,428.84 882.35,434.90 869.15,449.81 Z" 
        fill="#87CEEB" stroke="#333" stroke-width="1.5" opacity="0.8"/>

  <!-- Marker group - to be populated by JavaScript -->
  <g id="markers"></g>
</svg>